<svg data-v-fde0c5aa="" xmlns="http://www.w3.org/2000/svg" viewBox="0 0 300 300" class="font"><!----><defs data-v-fde0c5aa=""><!----></defs><rect data-v-fde0c5aa="" fill="transparent" x="0" y="0" width="300px" height="300px" class="logo-background-square"></rect><defs data-v-fde0c5aa=""><linearGradient data-v-fde0c5aa="" gradientTransform="rotate(25)" id="d9fb0734-793c-4610-ab41-89df0a76daaa" x1="0%" y1="0%" x2="100%" y2="0%"><stop data-v-fde0c5aa="" offset="0%" stop-color="#5F2517" stop-opacity="1"></stop><stop data-v-fde0c5aa="" offset="100%" stop-color="#FFEDB5" stop-opacity="1"></stop></linearGradient></defs><g data-v-fde0c5aa="" id="0c449786-5c6f-4d9c-a25c-a210638bf6a1" fill="url(#d9fb0734-793c-4610-ab41-89df0a76daaa)" transform="matrix(1.4442273226651279,0,0,1.4442273226651279,-80.18817972881259,135.61549649982368)"><path d="M3.39 13.78L5.01 13.78L5.01 5.89L7.90 5.89L7.90 4.54L0.52 4.54L0.52 5.89L3.39 5.89ZM13.02 13.96C14.03 13.96 14.98 13.59 15.71 13.12L15.16 12.11C14.55 12.49 13.94 12.70 13.23 12.70C11.98 12.70 11.02 11.96 10.92 10.64L15.92 10.64C15.95 10.46 15.99 10.15 15.99 9.84C15.99 7.87 14.85 6.45 12.81 6.45C11.00 6.45 9.27 7.88 9.27 10.21C9.27 12.56 10.93 13.96 13.02 13.96ZM10.91 9.53C11.09 8.34 11.91 7.70 12.84 7.70C13.93 7.70 14.52 8.39 14.52 9.53ZM21.63 13.96C22.61 13.96 23.62 13.57 24.42 12.87L23.74 11.84C23.21 12.28 22.55 12.64 21.77 12.64C20.41 12.64 19.49 11.68 19.49 10.21C19.49 8.75 20.44 7.77 21.81 7.77C22.43 7.77 22.97 8.01 23.52 8.48L24.28 7.48C23.70 6.90 22.83 6.45 21.74 6.45C19.64 6.45 17.84 7.83 17.84 10.21C17.84 12.59 19.47 13.96 21.63 13.96ZM26.36 13.78L27.96 13.78L27.96 8.89C28.60 8.19 29.06 7.83 29.75 7.83C30.69 7.83 31.04 8.39 31.04 9.56L31.04 13.78L32.65 13.78L32.65 9.35C32.65 7.50 31.92 6.45 30.34 6.45C29.29 6.45 28.52 7.03 27.87 7.71L27.96 6.16L27.96 3.63L26.36 3.63ZM34.76 13.78L36.36 13.78L36.36 8.89C37.00 8.19 37.46 7.83 38.15 7.83C39.09 7.83 39.44 8.39 39.44 9.56L39.44 13.78L41.05 13.78L41.05 9.35C41.05 7.50 40.32 6.45 38.74 6.45C37.69 6.45 36.92 7.03 36.26 7.74L36.20 7.74L36.08 6.64L34.76 6.64ZM46.20 13.96C48.02 13.96 49.66 12.59 49.66 10.21C49.66 7.83 48.02 6.45 46.20 6.45C44.39 6.45 42.76 7.83 42.76 10.21C42.76 12.59 44.39 13.96 46.20 13.96ZM46.20 12.64C45.08 12.64 44.41 11.68 44.41 10.21C44.41 8.75 45.08 7.77 46.20 7.77C47.33 7.77 48.01 8.75 48.01 10.21C48.01 11.68 47.33 12.64 46.20 12.64ZM51.67 13.78L53.28 13.78L53.28 11.90L54.60 10.49L56.76 13.78L58.52 13.78L55.55 9.51L58.23 6.64L56.45 6.64L53.34 10.01L53.28 10.01L53.28 3.63L51.67 3.63ZM63.13 5.42C63.81 5.42 64.32 4.96 64.32 4.24C64.32 3.53 63.81 3.04 63.13 3.04C62.45 3.04 61.94 3.53 61.94 4.24C61.94 4.96 62.45 5.42 63.13 5.42ZM59.93 13.78L66.56 13.78L66.56 12.46L64.05 12.46L64.05 6.64L59.93 6.64L59.93 7.91L62.44 7.91L62.44 12.46L59.93 12.46ZM68.36 13.78L69.96 13.78L69.96 8.89C70.60 8.19 71.06 7.83 71.75 7.83C72.69 7.83 73.04 8.39 73.04 9.56L73.04 13.78L74.65 13.78L74.65 9.35C74.65 7.50 73.92 6.45 72.34 6.45C71.29 6.45 70.52 7.03 69.86 7.74L69.80 7.74L69.68 6.64L68.36 6.64ZM79.45 16.88C81.65 16.88 82.85 15.78 82.85 13.78L82.85 6.64L81.58 6.64L81.45 7.41L81.40 7.41C80.84 6.79 80.18 6.45 79.41 6.45C77.78 6.45 76.36 7.87 76.36 10.09C76.36 12.25 77.53 13.65 79.28 13.65C80.04 13.65 80.82 13.26 81.33 12.73L81.30 13.89C81.28 14.99 80.61 15.62 79.45 15.62C78.82 15.62 78.05 15.44 77.36 14.74L76.75 15.79C77.59 16.65 78.62 16.88 79.45 16.88ZM79.67 12.35C78.65 12.35 77.98 11.48 77.98 10.07C77.98 8.68 78.82 7.78 79.74 7.78C80.26 7.78 80.75 7.97 81.24 8.46L81.24 11.44C80.75 12.05 80.23 12.35 79.67 12.35ZM87.70 8.69L88.72 8.69L89.14 5.78L89.18 4.17L87.22 4.17L87.28 5.78ZM96.64 13.96C98.73 13.96 99.86 12.96 99.86 11.75C99.86 10.58 98.83 10.04 97.23 9.60C96.12 9.31 95.30 9.02 95.30 8.50C95.30 8.02 95.68 7.67 96.74 7.67C97.52 7.67 98.22 7.97 98.84 8.39L99.58 7.39C98.88 6.92 97.85 6.45 96.73 6.45C94.79 6.45 93.69 7.35 93.69 8.58C93.69 9.65 94.92 10.28 96.22 10.63C97.62 11.00 98.27 11.34 98.27 11.84C98.27 12.36 97.76 12.73 96.68 12.73C95.62 12.73 94.79 12.38 94.02 11.82L93.28 12.84C94.14 13.44 95.35 13.96 96.64 13.96ZM110.39 13.78L112.00 13.78L112.00 10.15L113.36 10.15L115.35 13.78L117.17 13.78L114.97 9.90C116.07 9.52 116.80 8.67 116.80 7.27C116.80 5.21 115.33 4.54 113.44 4.54L110.39 4.54ZM112.00 8.85L112.00 5.82L113.27 5.82C114.53 5.82 115.21 6.19 115.21 7.27C115.21 8.32 114.53 8.85 113.27 8.85ZM122.22 13.96C123.23 13.96 124.18 13.59 124.91 13.12L124.36 12.11C123.75 12.49 123.14 12.70 122.43 12.70C121.18 12.70 120.22 11.96 120.12 10.64L125.12 10.64C125.15 10.46 125.19 10.15 125.19 9.84C125.19 7.87 124.05 6.45 122.01 6.45C120.20 6.45 118.47 7.88 118.47 10.21C118.47 12.56 120.13 13.96 122.22 13.96ZM120.11 9.53C120.29 8.34 121.11 7.70 122.04 7.70C123.13 7.70 123.72 8.39 123.72 9.53ZM131.47 13.96C132.29 13.96 133.06 13.75 133.67 13.54L133.36 12.38C132.93 12.54 132.44 12.67 131.85 12.67C130.69 12.67 130.27 12.11 130.27 10.92L130.27 7.91L133.41 7.91L133.41 6.64L130.27 6.64L130.27 3.77L128.73 4.54L128.73 6.64L126.83 6.64L126.83 7.91L128.66 7.91L128.66 10.92C128.66 12.73 129.37 13.96 131.47 13.96ZM136.23 13.78L137.84 13.78L137.84 9.79C138.54 8.40 139.47 7.88 140.41 7.88C140.94 7.88 141.20 7.95 141.65 8.11L142.00 6.75C141.58 6.55 141.22 6.45 140.66 6.45C139.47 6.45 138.43 7.11 137.73 8.27L137.69 8.27L137.55 6.64L136.23 6.64ZM147.42 13.96C148.43 13.96 149.38 13.59 150.11 13.12L149.56 12.11C148.95 12.49 148.34 12.70 147.63 12.70C146.38 12.70 145.42 11.96 145.32 10.64L150.32 10.64C150.35 10.46 150.39 10.15 150.39 9.84C150.39 7.87 149.25 6.45 147.21 6.45C145.40 6.45 143.67 7.88 143.67 10.21C143.67 12.56 145.33 13.96 147.42 13.96ZM145.31 9.53C145.49 8.34 146.31 7.70 147.24 7.70C148.33 7.70 148.92 8.39 148.92 9.53ZM154.49 13.96C155.43 13.96 156.34 13.45 157.07 12.88L157.12 12.88L157.25 13.78L158.55 13.78L158.55 9.52C158.55 7.56 157.51 6.45 155.61 6.45C154.42 6.45 153.36 6.94 152.75 7.46L153.34 8.53C153.83 8.12 154.53 7.76 155.30 7.76C156.44 7.76 156.90 8.39 156.95 9.21C153.55 9.48 152.19 10.26 152.19 11.87C152.19 13.10 153.16 13.96 154.49 13.96ZM154.98 12.68C154.29 12.68 153.75 12.40 153.75 11.75C153.75 10.95 154.48 10.40 156.95 10.22L156.95 11.79C156.32 12.35 155.67 12.68 154.98 12.68ZM165.07 13.96C165.89 13.96 166.66 13.75 167.27 13.54L166.96 12.38C166.53 12.54 166.04 12.67 165.45 12.67C164.29 12.67 163.87 12.11 163.87 10.92L163.87 7.91L167.01 7.91L167.01 6.64L163.87 6.64L163.87 3.77L162.33 4.54L162.33 6.64L160.43 6.64L160.43 7.91L162.26 7.91L162.26 10.92C162.26 12.73 162.97 13.96 165.07 13.96ZM179.69 13.96C180.63 13.96 181.54 13.45 182.27 12.88L182.32 12.88L182.45 13.78L183.75 13.78L183.75 9.52C183.75 7.56 182.71 6.45 180.81 6.45C179.62 6.45 178.56 6.94 177.95 7.46L178.54 8.53C179.03 8.12 179.73 7.76 180.50 7.76C181.64 7.76 182.10 8.39 182.15 9.21C178.75 9.48 177.39 10.26 177.39 11.87C177.39 13.10 178.36 13.96 179.69 13.96ZM180.18 12.68C179.49 12.68 178.95 12.40 178.95 11.75C178.95 10.95 179.68 10.40 182.15 10.22L182.15 11.79C181.52 12.35 180.87 12.68 180.18 12.68ZM185.96 13.78L187.56 13.78L187.56 8.89C188.20 8.19 188.66 7.83 189.35 7.83C190.29 7.83 190.64 8.39 190.64 9.56L190.64 13.78L192.25 13.78L192.25 9.35C192.25 7.50 191.52 6.45 189.94 6.45C188.89 6.45 188.12 7.03 187.46 7.74L187.40 7.74L187.28 6.64L185.96 6.64ZM196.90 13.96C197.67 13.96 198.42 13.48 198.97 12.92L199.01 12.92L199.14 13.78L200.45 13.78L200.45 3.63L198.84 3.63L198.84 6.09L198.90 7.32C198.34 6.79 197.79 6.45 196.98 6.45C195.43 6.45 193.96 7.88 193.96 10.21C193.96 12.57 195.12 13.96 196.90 13.96ZM197.27 12.63C196.22 12.63 195.61 11.76 195.61 10.19C195.61 8.68 196.41 7.78 197.37 7.78C197.86 7.78 198.35 7.97 198.84 8.46L198.84 11.73C198.37 12.33 197.85 12.63 197.27 12.63ZM215.03 13.94C216.19 13.94 217.13 13.47 217.87 12.60L216.96 11.62C216.44 12.19 215.87 12.54 215.12 12.54C213.56 12.54 212.51 11.24 212.51 9.13C212.51 7.04 213.56 5.77 215.08 5.77C215.80 5.77 216.33 6.06 216.79 6.52L217.69 5.52C217.11 4.91 216.22 4.37 215.08 4.37C212.66 4.37 210.85 6.16 210.85 9.18C210.85 12.24 212.69 13.94 215.03 13.94ZM222.60 13.96C224.42 13.96 226.06 12.59 226.06 10.21C226.06 7.83 224.42 6.45 222.60 6.45C220.79 6.45 219.16 7.83 219.16 10.21C219.16 12.59 220.79 13.96 222.60 13.96ZM222.60 12.64C221.48 12.64 220.81 11.68 220.81 10.21C220.81 8.75 221.48 7.77 222.60 7.77C223.73 7.77 224.41 8.75 224.41 10.21C224.41 11.68 223.73 12.64 222.60 12.64ZM232.41 13.96C233.21 13.96 233.70 13.78 234.37 13.54L234.00 12.35C233.52 12.56 233.16 12.64 232.81 12.64C232.11 12.64 231.57 12.26 231.57 11.30L231.57 3.63L227.81 3.63L227.81 4.90L229.98 4.90L229.98 11.20C229.98 12.95 230.82 13.96 232.41 13.96ZM240.81 13.96C241.61 13.96 242.10 13.78 242.77 13.54L242.40 12.35C241.92 12.56 241.56 12.64 241.21 12.64C240.51 12.64 239.97 12.26 239.97 11.30L239.97 3.63L236.21 3.63L236.21 4.90L238.38 4.90L238.38 11.20C238.38 12.95 239.22 13.96 240.81 13.96ZM246.89 13.96C247.83 13.96 248.74 13.45 249.47 12.88L249.52 12.88L249.65 13.78L250.95 13.78L250.95 9.52C250.95 7.56 249.91 6.45 248.01 6.45C246.82 6.45 245.76 6.94 245.15 7.46L245.74 8.53C246.23 8.12 246.93 7.76 247.70 7.76C248.84 7.76 249.30 8.39 249.35 9.21C245.95 9.48 244.59 10.26 244.59 11.87C244.59 13.10 245.56 13.96 246.89 13.96ZM247.38 12.68C246.69 12.68 246.15 12.40 246.15 11.75C246.15 10.95 246.88 10.40 249.35 10.22L249.35 11.79C248.72 12.35 248.07 12.68 247.38 12.68ZM256.61 13.96C258.20 13.96 259.66 12.53 259.66 10.08C259.66 7.88 258.62 6.45 256.84 6.45C256.10 6.45 255.32 6.83 254.72 7.43L254.76 6.16L254.76 3.63L253.16 3.63L253.16 13.78L254.42 13.78L254.56 12.98L254.60 12.98C255.22 13.59 255.96 13.96 256.61 13.96ZM256.28 12.63C255.86 12.63 255.28 12.43 254.76 11.94L254.76 8.68C255.33 8.06 255.88 7.78 256.41 7.78C257.52 7.78 258.01 8.67 258.01 10.11C258.01 11.75 257.26 12.63 256.28 12.63ZM264.60 13.96C266.42 13.96 268.06 12.59 268.06 10.21C268.06 7.83 266.42 6.45 264.60 6.45C262.79 6.45 261.16 7.83 261.16 10.21C261.16 12.59 262.79 13.96 264.60 13.96ZM264.60 12.64C263.48 12.64 262.81 11.68 262.81 10.21C262.81 8.75 263.48 7.77 264.60 7.77C265.73 7.77 266.41 8.75 266.41 10.21C266.41 11.68 265.73 12.64 264.60 12.64ZM270.63 13.78L272.24 13.78L272.24 9.79C272.94 8.40 273.87 7.88 274.81 7.88C275.34 7.88 275.60 7.95 276.05 8.11L276.40 6.75C275.98 6.55 275.62 6.45 275.06 6.45C273.87 6.45 272.83 7.11 272.13 8.27L272.09 8.27L271.95 6.64L270.63 6.64ZM280.49 13.96C281.43 13.96 282.34 13.45 283.07 12.88L283.12 12.88L283.25 13.78L284.55 13.78L284.55 9.52C284.55 7.56 283.51 6.45 281.61 6.45C280.42 6.45 279.36 6.94 278.75 7.46L279.34 8.53C279.83 8.12 280.53 7.76 281.30 7.76C282.44 7.76 282.90 8.39 282.95 9.21C279.55 9.48 278.19 10.26 278.19 11.87C278.19 13.10 279.16 13.96 280.49 13.96ZM280.98 12.68C280.29 12.68 279.75 12.40 279.75 11.75C279.75 10.95 280.48 10.40 282.95 10.22L282.95 11.79C282.32 12.35 281.67 12.68 280.98 12.68ZM291.07 13.96C291.89 13.96 292.66 13.75 293.27 13.54L292.96 12.38C292.53 12.54 292.04 12.67 291.45 12.67C290.29 12.67 289.87 12.11 289.87 10.92L289.87 7.91L293.01 7.91L293.01 6.64L289.87 6.64L289.87 3.77L288.33 4.54L288.33 6.64L286.43 6.64L286.43 7.91L288.26 7.91L288.26 10.92C288.26 12.73 288.97 13.96 291.07 13.96ZM298.33 5.42C299.01 5.42 299.52 4.96 299.52 4.24C299.52 3.53 299.01 3.04 298.33 3.04C297.65 3.04 297.14 3.53 297.14 4.24C297.14 4.96 297.65 5.42 298.33 5.42ZM295.13 13.78L301.76 13.78L301.76 12.46L299.25 12.46L299.25 6.64L295.13 6.64L295.13 7.91L297.64 7.91L297.64 12.46L295.13 12.46ZM306.60 13.96C308.42 13.96 310.06 12.59 310.06 10.21C310.06 7.83 308.42 6.45 306.60 6.45C304.79 6.45 303.16 7.83 303.16 10.21C303.16 12.59 304.79 13.96 306.60 13.96ZM306.60 12.64C305.48 12.64 304.81 11.68 304.81 10.21C304.81 8.75 305.48 7.77 306.60 7.77C307.73 7.77 308.41 8.75 308.41 10.21C308.41 11.68 307.73 12.64 306.60 12.64ZM311.96 13.78L313.56 13.78L313.56 8.89C314.20 8.19 314.66 7.83 315.35 7.83C316.29 7.83 316.64 8.39 316.64 9.56L316.64 13.78L318.25 13.78L318.25 9.35C318.25 7.50 317.52 6.45 315.94 6.45C314.89 6.45 314.12 7.03 313.46 7.74L313.40 7.74L313.28 6.64L311.96 6.64Z"></path></g><!----><!----></svg>