<svg data-v-423bf9ae="" xmlns="http://www.w3.org/2000/svg" viewBox="0 0 1377.4423238894535 196" class="iconAboveSlogan"><!----><!----><!----><g data-v-423bf9ae="" id="9588c06d-80a4-4e54-ab0c-43f85341cb7d" fill="black" transform="matrix(4.335260366540335,0,0,4.335260366540335,-2.254310137923653,89.8208091279316)"><path d="M3.39 13.78L5.01 13.78L5.01 5.89L7.90 5.89L7.90 4.54L0.52 4.54L0.52 5.89L3.39 5.89ZM13.02 13.96C14.03 13.96 14.98 13.59 15.71 13.12L15.16 12.11C14.55 12.49 13.94 12.70 13.23 12.70C11.98 12.70 11.02 11.96 10.92 10.64L15.92 10.64C15.95 10.46 15.99 10.15 15.99 9.84C15.99 7.87 14.85 6.45 12.81 6.45C11.00 6.45 9.27 7.88 9.27 10.21C9.27 12.56 10.93 13.96 13.02 13.96ZM10.91 9.53C11.09 8.34 11.91 7.70 12.84 7.70C13.93 7.70 14.52 8.39 14.52 9.53ZM21.63 13.96C22.61 13.96 23.62 13.57 24.42 12.87L23.74 11.84C23.21 12.28 22.55 12.64 21.77 12.64C20.41 12.64 19.49 11.68 19.49 10.21C19.49 8.75 20.44 7.77 21.81 7.77C22.43 7.77 22.97 8.01 23.52 8.48L24.28 7.48C23.70 6.90 22.83 6.45 21.74 6.45C19.64 6.45 17.84 7.83 17.84 10.21C17.84 12.59 19.47 13.96 21.63 13.96ZM26.36 13.78L27.96 13.78L27.96 8.89C28.60 8.19 29.06 7.83 29.75 7.83C30.69 7.83 31.04 8.39 31.04 9.56L31.04 13.78L32.65 13.78L32.65 9.35C32.65 7.50 31.92 6.45 30.34 6.45C29.29 6.45 28.52 7.03 27.87 7.71L27.96 6.16L27.96 3.63L26.36 3.63ZM34.76 13.78L36.36 13.78L36.36 8.89C37.00 8.19 37.46 7.83 38.15 7.83C39.09 7.83 39.44 8.39 39.44 9.56L39.44 13.78L41.05 13.78L41.05 9.35C41.05 7.50 40.32 6.45 38.74 6.45C37.69 6.45 36.92 7.03 36.26 7.74L36.20 7.74L36.08 6.64L34.76 6.64ZM46.20 13.96C48.02 13.96 49.66 12.59 49.66 10.21C49.66 7.83 48.02 6.45 46.20 6.45C44.39 6.45 42.76 7.83 42.76 10.21C42.76 12.59 44.39 13.96 46.20 13.96ZM46.20 12.64C45.08 12.64 44.41 11.68 44.41 10.21C44.41 8.75 45.08 7.77 46.20 7.77C47.33 7.77 48.01 8.75 48.01 10.21C48.01 11.68 47.33 12.64 46.20 12.64ZM51.67 13.78L53.28 13.78L53.28 11.90L54.60 10.49L56.76 13.78L58.52 13.78L55.55 9.51L58.23 6.64L56.45 6.64L53.34 10.01L53.28 10.01L53.28 3.63L51.67 3.63ZM63.13 5.42C63.81 5.42 64.32 4.96 64.32 4.24C64.32 3.53 63.81 3.04 63.13 3.04C62.45 3.04 61.94 3.53 61.94 4.24C61.94 4.96 62.45 5.42 63.13 5.42ZM59.93 13.78L66.56 13.78L66.56 12.46L64.05 12.46L64.05 6.64L59.93 6.64L59.93 7.91L62.44 7.91L62.44 12.46L59.93 12.46ZM68.36 13.78L69.96 13.78L69.96 8.89C70.60 8.19 71.06 7.83 71.75 7.83C72.69 7.83 73.04 8.39 73.04 9.56L73.04 13.78L74.65 13.78L74.65 9.35C74.65 7.50 73.92 6.45 72.34 6.45C71.29 6.45 70.52 7.03 69.86 7.74L69.80 7.74L69.68 6.64L68.36 6.64ZM79.45 16.88C81.65 16.88 82.85 15.78 82.85 13.78L82.85 6.64L81.58 6.64L81.45 7.41L81.40 7.41C80.84 6.79 80.18 6.45 79.41 6.45C77.78 6.45 76.36 7.87 76.36 10.09C76.36 12.25 77.53 13.65 79.28 13.65C80.04 13.65 80.82 13.26 81.33 12.73L81.30 13.89C81.28 14.99 80.61 15.62 79.45 15.62C78.82 15.62 78.05 15.44 77.36 14.74L76.75 15.79C77.59 16.65 78.62 16.88 79.45 16.88ZM79.67 12.35C78.65 12.35 77.98 11.48 77.98 10.07C77.98 8.68 78.82 7.78 79.74 7.78C80.26 7.78 80.75 7.97 81.24 8.46L81.24 11.44C80.75 12.05 80.23 12.35 79.67 12.35ZM87.70 8.69L88.72 8.69L89.14 5.78L89.18 4.17L87.22 4.17L87.28 5.78ZM96.64 13.96C98.73 13.96 99.86 12.96 99.86 11.75C99.86 10.58 98.83 10.04 97.23 9.60C96.12 9.31 95.30 9.02 95.30 8.50C95.30 8.02 95.68 7.67 96.74 7.67C97.52 7.67 98.22 7.97 98.84 8.39L99.58 7.39C98.88 6.92 97.85 6.45 96.73 6.45C94.79 6.45 93.69 7.35 93.69 8.58C93.69 9.65 94.92 10.28 96.22 10.63C97.62 11.00 98.27 11.34 98.27 11.84C98.27 12.36 97.76 12.73 96.68 12.73C95.62 12.73 94.79 12.38 94.02 11.82L93.28 12.84C94.14 13.44 95.35 13.96 96.64 13.96ZM110.39 13.78L112.00 13.78L112.00 10.15L113.36 10.15L115.35 13.78L117.17 13.78L114.97 9.90C116.07 9.52 116.80 8.67 116.80 7.27C116.80 5.21 115.33 4.54 113.44 4.54L110.39 4.54ZM112.00 8.85L112.00 5.82L113.27 5.82C114.53 5.82 115.21 6.19 115.21 7.27C115.21 8.32 114.53 8.85 113.27 8.85ZM122.22 13.96C123.23 13.96 124.18 13.59 124.91 13.12L124.36 12.11C123.75 12.49 123.14 12.70 122.43 12.70C121.18 12.70 120.22 11.96 120.12 10.64L125.12 10.64C125.15 10.46 125.19 10.15 125.19 9.84C125.19 7.87 124.05 6.45 122.01 6.45C120.20 6.45 118.47 7.88 118.47 10.21C118.47 12.56 120.13 13.96 122.22 13.96ZM120.11 9.53C120.29 8.34 121.11 7.70 122.04 7.70C123.13 7.70 123.72 8.39 123.72 9.53ZM131.47 13.96C132.29 13.96 133.06 13.75 133.67 13.54L133.36 12.38C132.93 12.54 132.44 12.67 131.85 12.67C130.69 12.67 130.27 12.11 130.27 10.92L130.27 7.91L133.41 7.91L133.41 6.64L130.27 6.64L130.27 3.77L128.73 4.54L128.73 6.64L126.83 6.64L126.83 7.91L128.66 7.91L128.66 10.92C128.66 12.73 129.37 13.96 131.47 13.96ZM136.23 13.78L137.84 13.78L137.84 9.79C138.54 8.40 139.47 7.88 140.41 7.88C140.94 7.88 141.20 7.95 141.65 8.11L142.00 6.75C141.58 6.55 141.22 6.45 140.66 6.45C139.47 6.45 138.43 7.11 137.73 8.27L137.69 8.27L137.55 6.64L136.23 6.64ZM147.42 13.96C148.43 13.96 149.38 13.59 150.11 13.12L149.56 12.11C148.95 12.49 148.34 12.70 147.63 12.70C146.38 12.70 145.42 11.96 145.32 10.64L150.32 10.64C150.35 10.46 150.39 10.15 150.39 9.84C150.39 7.87 149.25 6.45 147.21 6.45C145.40 6.45 143.67 7.88 143.67 10.21C143.67 12.56 145.33 13.96 147.42 13.96ZM145.31 9.53C145.49 8.34 146.31 7.70 147.24 7.70C148.33 7.70 148.92 8.39 148.92 9.53ZM154.49 13.96C155.43 13.96 156.34 13.45 157.07 12.88L157.12 12.88L157.25 13.78L158.55 13.78L158.55 9.52C158.55 7.56 157.51 6.45 155.61 6.45C154.42 6.45 153.36 6.94 152.75 7.46L153.34 8.53C153.83 8.12 154.53 7.76 155.30 7.76C156.44 7.76 156.90 8.39 156.95 9.21C153.55 9.48 152.19 10.26 152.19 11.87C152.19 13.10 153.16 13.96 154.49 13.96ZM154.98 12.68C154.29 12.68 153.75 12.40 153.75 11.75C153.75 10.95 154.48 10.40 156.95 10.22L156.95 11.79C156.32 12.35 155.67 12.68 154.98 12.68ZM165.07 13.96C165.89 13.96 166.66 13.75 167.27 13.54L166.96 12.38C166.53 12.54 166.04 12.67 165.45 12.67C164.29 12.67 163.87 12.11 163.87 10.92L163.87 7.91L167.01 7.91L167.01 6.64L163.87 6.64L163.87 3.77L162.33 4.54L162.33 6.64L160.43 6.64L160.43 7.91L162.26 7.91L162.26 10.92C162.26 12.73 162.97 13.96 165.07 13.96ZM179.69 13.96C180.63 13.96 181.54 13.45 182.27 12.88L182.32 12.88L182.45 13.78L183.75 13.78L183.75 9.52C183.75 7.56 182.71 6.45 180.81 6.45C179.62 6.45 178.56 6.94 177.95 7.46L178.54 8.53C179.03 8.12 179.73 7.76 180.50 7.76C181.64 7.76 182.10 8.39 182.15 9.21C178.75 9.48 177.39 10.26 177.39 11.87C177.39 13.10 178.36 13.96 179.69 13.96ZM180.18 12.68C179.49 12.68 178.95 12.40 178.95 11.75C178.95 10.95 179.68 10.40 182.15 10.22L182.15 11.79C181.52 12.35 180.87 12.68 180.18 12.68ZM185.96 13.78L187.56 13.78L187.56 8.89C188.20 8.19 188.66 7.83 189.35 7.83C190.29 7.83 190.64 8.39 190.64 9.56L190.64 13.78L192.25 13.78L192.25 9.35C192.25 7.50 191.52 6.45 189.94 6.45C188.89 6.45 188.12 7.03 187.46 7.74L187.40 7.74L187.28 6.64L185.96 6.64ZM196.90 13.96C197.67 13.96 198.42 13.48 198.97 12.92L199.01 12.92L199.14 13.78L200.45 13.78L200.45 3.63L198.84 3.63L198.84 6.09L198.90 7.32C198.34 6.79 197.79 6.45 196.98 6.45C195.43 6.45 193.96 7.88 193.96 10.21C193.96 12.57 195.12 13.96 196.90 13.96ZM197.27 12.63C196.22 12.63 195.61 11.76 195.61 10.19C195.61 8.68 196.41 7.78 197.37 7.78C197.86 7.78 198.35 7.97 198.84 8.46L198.84 11.73C198.37 12.33 197.85 12.63 197.27 12.63ZM215.03 13.94C216.19 13.94 217.13 13.47 217.87 12.60L216.96 11.62C216.44 12.19 215.87 12.54 215.12 12.54C213.56 12.54 212.51 11.24 212.51 9.13C212.51 7.04 213.56 5.77 215.08 5.77C215.80 5.77 216.33 6.06 216.79 6.52L217.69 5.52C217.11 4.91 216.22 4.37 215.08 4.37C212.66 4.37 210.85 6.16 210.85 9.18C210.85 12.24 212.69 13.94 215.03 13.94ZM222.60 13.96C224.42 13.96 226.06 12.59 226.06 10.21C226.06 7.83 224.42 6.45 222.60 6.45C220.79 6.45 219.16 7.83 219.16 10.21C219.16 12.59 220.79 13.96 222.60 13.96ZM222.60 12.64C221.48 12.64 220.81 11.68 220.81 10.21C220.81 8.75 221.48 7.77 222.60 7.77C223.73 7.77 224.41 8.75 224.41 10.21C224.41 11.68 223.73 12.64 222.60 12.64ZM232.41 13.96C233.21 13.96 233.70 13.78 234.37 13.54L234.00 12.35C233.52 12.56 233.16 12.64 232.81 12.64C232.11 12.64 231.57 12.26 231.57 11.30L231.57 3.63L227.81 3.63L227.81 4.90L229.98 4.90L229.98 11.20C229.98 12.95 230.82 13.96 232.41 13.96ZM240.81 13.96C241.61 13.96 242.10 13.78 242.77 13.54L242.40 12.35C241.92 12.56 241.56 12.64 241.21 12.64C240.51 12.64 239.97 12.26 239.97 11.30L239.97 3.63L236.21 3.63L236.21 4.90L238.38 4.90L238.38 11.20C238.38 12.95 239.22 13.96 240.81 13.96ZM246.89 13.96C247.83 13.96 248.74 13.45 249.47 12.88L249.52 12.88L249.65 13.78L250.95 13.78L250.95 9.52C250.95 7.56 249.91 6.45 248.01 6.45C246.82 6.45 245.76 6.94 245.15 7.46L245.74 8.53C246.23 8.12 246.93 7.76 247.70 7.76C248.84 7.76 249.30 8.39 249.35 9.21C245.95 9.48 244.59 10.26 244.59 11.87C244.59 13.10 245.56 13.96 246.89 13.96ZM247.38 12.68C246.69 12.68 246.15 12.40 246.15 11.75C246.15 10.95 246.88 10.40 249.35 10.22L249.35 11.79C248.72 12.35 248.07 12.68 247.38 12.68ZM256.61 13.96C258.20 13.96 259.66 12.53 259.66 10.08C259.66 7.88 258.62 6.45 256.84 6.45C256.10 6.45 255.32 6.83 254.72 7.43L254.76 6.16L254.76 3.63L253.16 3.63L253.16 13.78L254.42 13.78L254.56 12.98L254.60 12.98C255.22 13.59 255.96 13.96 256.61 13.96ZM256.28 12.63C255.86 12.63 255.28 12.43 254.76 11.94L254.76 8.68C255.33 8.06 255.88 7.78 256.41 7.78C257.52 7.78 258.01 8.67 258.01 10.11C258.01 11.75 257.26 12.63 256.28 12.63ZM264.60 13.96C266.42 13.96 268.06 12.59 268.06 10.21C268.06 7.83 266.42 6.45 264.60 6.45C262.79 6.45 261.16 7.83 261.16 10.21C261.16 12.59 262.79 13.96 264.60 13.96ZM264.60 12.64C263.48 12.64 262.81 11.68 262.81 10.21C262.81 8.75 263.48 7.77 264.60 7.77C265.73 7.77 266.41 8.75 266.41 10.21C266.41 11.68 265.73 12.64 264.60 12.64ZM270.63 13.78L272.24 13.78L272.24 9.79C272.94 8.40 273.87 7.88 274.81 7.88C275.34 7.88 275.60 7.95 276.05 8.11L276.40 6.75C275.98 6.55 275.62 6.45 275.06 6.45C273.87 6.45 272.83 7.11 272.13 8.27L272.09 8.27L271.95 6.64L270.63 6.64ZM280.49 13.96C281.43 13.96 282.34 13.45 283.07 12.88L283.12 12.88L283.25 13.78L284.55 13.78L284.55 9.52C284.55 7.56 283.51 6.45 281.61 6.45C280.42 6.45 279.36 6.94 278.75 7.46L279.34 8.53C279.83 8.12 280.53 7.76 281.30 7.76C282.44 7.76 282.90 8.39 282.95 9.21C279.55 9.48 278.19 10.26 278.19 11.87C278.19 13.10 279.16 13.96 280.49 13.96ZM280.98 12.68C280.29 12.68 279.75 12.40 279.75 11.75C279.75 10.95 280.48 10.40 282.95 10.22L282.95 11.79C282.32 12.35 281.67 12.68 280.98 12.68ZM291.07 13.96C291.89 13.96 292.66 13.75 293.27 13.54L292.96 12.38C292.53 12.54 292.04 12.67 291.45 12.67C290.29 12.67 289.87 12.11 289.87 10.92L289.87 7.91L293.01 7.91L293.01 6.64L289.87 6.64L289.87 3.77L288.33 4.54L288.33 6.64L286.43 6.64L286.43 7.91L288.26 7.91L288.26 10.92C288.26 12.73 288.97 13.96 291.07 13.96ZM298.33 5.42C299.01 5.42 299.52 4.96 299.52 4.24C299.52 3.53 299.01 3.04 298.33 3.04C297.65 3.04 297.14 3.53 297.14 4.24C297.14 4.96 297.65 5.42 298.33 5.42ZM295.13 13.78L301.76 13.78L301.76 12.46L299.25 12.46L299.25 6.64L295.13 6.64L295.13 7.91L297.64 7.91L297.64 12.46L295.13 12.46ZM306.60 13.96C308.42 13.96 310.06 12.59 310.06 10.21C310.06 7.83 308.42 6.45 306.60 6.45C304.79 6.45 303.16 7.83 303.16 10.21C303.16 12.59 304.79 13.96 306.60 13.96ZM306.60 12.64C305.48 12.64 304.81 11.68 304.81 10.21C304.81 8.75 305.48 7.77 306.60 7.77C307.73 7.77 308.41 8.75 308.41 10.21C308.41 11.68 307.73 12.64 306.60 12.64ZM311.96 13.78L313.56 13.78L313.56 8.89C314.20 8.19 314.66 7.83 315.35 7.83C316.29 7.83 316.64 8.39 316.64 9.56L316.64 13.78L318.25 13.78L318.25 9.35C318.25 7.50 317.52 6.45 315.94 6.45C314.89 6.45 314.12 7.03 313.46 7.74L313.40 7.74L313.28 6.64L311.96 6.64Z"></path></g><!----><g data-v-423bf9ae="" id="11dad409-57bd-486e-a712-b4a3cc287b0a" transform="matrix(2.7842233292419,0,0,2.7842233292419,642.3457600870039,1.0000000000000426)" stroke="none" fill="black"><path d="M5.78 16L16 5.78 26.22 16 16 26.22z"></path><path d="M32 3.714A3.714 3.714 0 0 0 28.286 0c-1.659 0-3.047 1.095-3.524 2.596H7.238C6.761 1.095 5.373 0 3.714 0A3.714 3.714 0 0 0 0 3.714a3.7 3.7 0 0 0 2.597 3.524v17.524A3.7 3.7 0 0 0 0 28.286 3.714 3.714 0 0 0 3.714 32c1.506 0 2.795-.9 3.378-2.188h17.816A3.707 3.707 0 0 0 28.286 32a3.709 3.709 0 1 0 1.526-7.093V7.092A3.707 3.707 0 0 0 32 3.714zm-3.188 20.911c-.173-.025-.346-.053-.526-.053a3.714 3.714 0 0 0-3.714 3.714c0 .18.028.353.053.526H7.375c.025-.173.053-.346.053-.526a3.714 3.714 0 0 0-3.714-3.714c-.04 0-.077.01-.117.012V7.416c.04.001.077.012.117.012a3.714 3.714 0 0 0 3.714-3.714c0-.04-.011-.078-.012-.117h17.168c-.001.04-.012.077-.012.117a3.714 3.714 0 0 0 3.714 3.714c.18 0 .352-.028.526-.053v17.25z"></path></g><!----><g data-v-423bf9ae="" id="f421a267-9f8f-4756-8bed-a195e67d16b2" fill="black" transform="matrix(1.6407238989949875,0,0,1.6407238989949875,171.8055901767009,194.34175643351807)"><path d="M7.85 2.21L7.85 7.52C7.85 9.67 6.43 10.57 4.96 10.57C3.49 10.57 2.07 9.67 2.07 7.52L2.07 2.21L1.02 2.21L1.02 7.49C1.02 9.95 2.65 11.59 4.96 11.59C7.28 11.59 8.90 9.94 8.90 7.49L8.90 2.21ZM17.68 4.48L17.68 11.48L18.73 11.48L18.73 7.45C18.73 6.19 19.68 5.32 20.85 5.32C21.99 5.32 22.81 6.16 22.81 7.43L22.81 11.48L23.86 11.48L23.86 7.41C23.86 5.42 22.50 4.37 21.06 4.37C19.92 4.37 19.24 4.90 18.73 5.57L18.73 4.48ZM32.61 11.48L33.66 11.48L33.66 4.48L32.61 4.48ZM32.56 1.93L32.56 3.30L33.70 3.30L33.70 1.93ZM44.28 11.48L44.28 5.40L45.89 5.40L45.89 4.48L44.28 4.48L44.28 1.97L43.23 1.97L43.23 4.48L41.80 4.48L41.80 5.40L43.23 5.40L43.23 11.48ZM54.04 11.48L55.09 11.48L55.09 4.48L54.04 4.48ZM54.00 1.93L54.00 3.30L55.13 3.30L55.13 1.93ZM63.91 4.48L63.91 11.48L64.96 11.48L64.96 7.45C64.96 6.19 65.91 5.32 67.07 5.32C68.22 5.32 69.03 6.16 69.03 7.43L69.03 11.48L70.08 11.48L70.08 7.41C70.08 5.42 68.73 4.37 67.28 4.37C66.15 4.37 65.46 4.90 64.96 5.57L64.96 4.48ZM84.29 4.48L84.29 5.60C83.78 4.84 82.95 4.37 81.79 4.37C79.74 4.37 78.40 5.92 78.40 7.92C78.40 9.93 79.74 11.48 81.79 11.48C82.95 11.48 83.78 10.99 84.29 10.23L84.29 11.20C84.29 12.64 83.59 13.41 81.98 13.41C80.92 13.41 80.22 13.01 79.94 12.32L78.78 12.32C79.17 13.54 80.28 14.36 82.04 14.36C84.14 14.36 85.34 13.27 85.34 11.27L85.34 4.48ZM81.93 10.53C80.37 10.53 79.45 9.37 79.45 7.92C79.45 6.48 80.37 5.32 81.93 5.32C83.45 5.32 84.35 6.48 84.35 7.92C84.35 9.37 83.45 10.53 81.93 10.53ZM105.95 11.48L105.95 5.40L107.56 5.40L107.56 4.48L105.95 4.48L105.95 1.97L104.90 1.97L104.90 4.48L103.47 4.48L103.47 5.40L104.90 5.40L104.90 11.48ZM118.69 10.64C117.28 10.64 116.37 9.65 116.21 8.40L122.08 8.40L122.08 7.98C122.08 5.98 120.75 4.37 118.61 4.37C116.47 4.37 115.14 5.98 115.14 7.98C115.14 9.98 116.54 11.59 118.68 11.59C120.34 11.59 121.38 10.72 121.87 9.46L120.72 9.46C120.34 10.16 119.67 10.64 118.69 10.64ZM118.61 5.32C119.95 5.32 120.79 6.23 120.99 7.42L116.23 7.42C116.42 6.23 117.26 5.32 118.61 5.32ZM133.32 4.37C131.28 4.37 129.93 5.98 129.93 7.98C129.93 9.98 131.28 11.59 133.32 11.59C134.48 11.59 135.31 11.12 135.83 10.36L135.83 11.48L136.88 11.48L136.88 4.48L135.83 4.48L135.83 5.61C135.31 4.86 134.48 4.37 133.32 4.37ZM133.46 10.64C131.91 10.64 130.98 9.42 130.98 7.98C130.98 6.54 131.91 5.32 133.46 5.32C135.02 5.32 135.88 6.54 135.88 7.98C135.88 9.42 135.02 10.64 133.46 10.64ZM151.42 7.29C151.42 6.05 152.28 5.32 153.31 5.32C154.29 5.32 155.05 6.10 155.05 7.28L155.05 11.48L156.10 11.48L156.10 7.25C156.10 5.49 154.85 4.37 153.51 4.37C152.12 4.37 151.38 5.31 151.10 5.78C150.65 4.89 149.80 4.37 148.88 4.37C147.74 4.37 147.07 4.98 146.75 5.54L146.75 4.48L145.70 4.48L145.70 11.48L146.75 11.48L146.75 7.29C146.75 6.05 147.60 5.32 148.64 5.32C149.62 5.32 150.37 6.10 150.37 7.28L150.37 11.48L151.42 11.48ZM167.29 4.37C165.48 4.37 164.54 5.11 164.54 6.37C164.54 8.93 169.20 7.84 169.20 9.59C169.20 10.54 167.99 10.70 167.41 10.70C166.05 10.70 165.52 10.00 165.45 9.28L164.36 9.28C164.43 10.51 165.45 11.59 167.40 11.59C169.13 11.59 170.25 10.85 170.25 9.49C170.25 6.86 165.59 7.95 165.59 6.27C165.59 5.59 166.17 5.26 167.26 5.26C168.43 5.26 168.88 5.75 168.97 6.36L170.03 6.36C169.90 5.33 169.13 4.37 167.29 4.37ZM177.84 13.34L178.79 13.34L180.03 10.36L178.65 10.36ZM202.22 4.37C201.05 4.37 200.23 4.86 199.71 5.61L199.71 1.68L198.66 1.68L198.66 11.48L199.71 11.48L199.71 10.36C200.23 11.12 201.05 11.59 202.22 11.59C204.26 11.59 205.60 9.98 205.60 7.98C205.60 5.98 204.26 4.37 202.22 4.37ZM202.08 10.64C200.52 10.64 199.65 9.42 199.65 7.98C199.65 6.54 200.52 5.32 202.08 5.32C203.63 5.32 204.55 6.54 204.55 7.98C204.55 9.42 203.63 10.64 202.08 10.64ZM220.08 11.48L220.08 4.48L219.03 4.48L219.03 8.51C219.03 9.77 218.08 10.64 216.92 10.64C215.77 10.64 214.96 9.80 214.96 8.53L214.96 4.48L213.91 4.48L213.91 8.55C213.91 10.54 215.26 11.59 216.71 11.59C217.84 11.59 218.53 11.06 219.03 10.39L219.03 11.48ZM228.90 11.48L229.95 11.48L229.95 4.48L228.90 4.48ZM228.86 1.93L228.86 3.30L229.99 3.30L229.99 1.93ZM239.82 1.68L238.77 1.68L238.77 11.48L239.82 11.48ZM251.59 4.37C249.55 4.37 248.21 5.98 248.21 7.98C248.21 9.98 249.55 11.59 251.59 11.59C252.76 11.59 253.58 11.12 254.10 10.36L254.10 11.48L255.15 11.48L255.15 1.68L254.10 1.68L254.10 5.61C253.58 4.86 252.76 4.37 251.59 4.37ZM251.73 10.64C250.18 10.64 249.26 9.42 249.26 7.98C249.26 6.54 250.18 5.32 251.73 5.32C253.29 5.32 254.16 6.54 254.16 7.98C254.16 9.42 253.29 10.64 251.73 10.64ZM263.97 11.48L265.02 11.48L265.02 4.48L263.97 4.48ZM263.93 1.93L263.93 3.30L265.06 3.30L265.06 1.93ZM273.84 4.48L273.84 11.48L274.89 11.48L274.89 7.45C274.89 6.19 275.84 5.32 277.00 5.32C278.15 5.32 278.96 6.16 278.96 7.43L278.96 11.48L280.01 11.48L280.01 7.41C280.01 5.42 278.66 4.37 277.21 4.37C276.08 4.37 275.39 4.90 274.89 5.57L274.89 4.48ZM294.22 4.48L294.22 5.60C293.71 4.84 292.88 4.37 291.72 4.37C289.67 4.37 288.33 5.92 288.33 7.92C288.33 9.93 289.67 11.48 291.72 11.48C292.88 11.48 293.71 10.99 294.22 10.23L294.22 11.20C294.22 12.64 293.52 13.41 291.91 13.41C290.85 13.41 290.15 13.01 289.87 12.32L288.71 12.32C289.10 13.54 290.21 14.36 291.97 14.36C294.07 14.36 295.27 13.27 295.27 11.27L295.27 4.48ZM291.86 10.53C290.30 10.53 289.38 9.37 289.38 7.92C289.38 6.48 290.30 5.32 291.86 5.32C293.38 5.32 294.28 6.48 294.28 7.92C294.28 9.37 293.38 10.53 291.86 10.53ZM317.63 4.37C316.47 4.37 315.64 4.86 315.13 5.61L315.13 1.68L314.08 1.68L314.08 11.48L315.13 11.48L315.13 10.36C315.64 11.12 316.47 11.59 317.63 11.59C319.68 11.59 321.02 9.98 321.02 7.98C321.02 5.98 319.68 4.37 317.63 4.37ZM317.49 10.64C315.94 10.64 315.07 9.42 315.07 7.98C315.07 6.54 315.94 5.32 317.49 5.32C319.05 5.32 319.97 6.54 319.97 7.98C319.97 9.42 319.05 10.64 317.49 10.64ZM332.43 4.37C330.29 4.37 328.96 5.98 328.96 7.98C328.96 9.98 330.29 11.59 332.43 11.59C334.57 11.59 335.90 9.98 335.90 7.98C335.90 5.98 334.57 4.37 332.43 4.37ZM332.43 10.64C330.88 10.64 330.01 9.42 330.01 7.98C330.01 6.54 330.88 5.32 332.43 5.32C333.98 5.32 334.85 6.54 334.85 7.98C334.85 9.42 333.98 10.64 332.43 10.64ZM344.29 4.48L344.29 11.48L345.34 11.48L345.34 7.45C345.34 6.19 346.29 5.32 347.45 5.32C348.60 5.32 349.41 6.16 349.41 7.43L349.41 11.48L350.46 11.48L350.46 7.41C350.46 5.42 349.10 4.37 347.66 4.37C346.53 4.37 345.84 4.90 345.34 5.57L345.34 4.48ZM362.17 4.37C360.12 4.37 358.78 5.98 358.78 7.98C358.78 9.98 360.12 11.59 362.17 11.59C363.33 11.59 364.15 11.12 364.67 10.36L364.67 11.48L365.72 11.48L365.72 1.68L364.67 1.68L364.67 5.61C364.15 4.86 363.33 4.37 362.17 4.37ZM362.31 10.64C360.75 10.64 359.83 9.42 359.83 7.98C359.83 6.54 360.75 5.32 362.31 5.32C363.86 5.32 364.73 6.54 364.73 7.98C364.73 9.42 363.86 10.64 362.31 10.64ZM376.98 4.37C375.17 4.37 374.23 5.11 374.23 6.37C374.23 8.93 378.90 7.84 378.90 9.59C378.90 10.54 377.68 10.70 377.10 10.70C375.75 10.70 375.21 10.00 375.14 9.28L374.05 9.28C374.12 10.51 375.14 11.59 377.09 11.59C378.83 11.59 379.95 10.85 379.95 9.49C379.95 6.86 375.28 7.95 375.28 6.27C375.28 5.59 375.86 5.26 376.95 5.26C378.13 5.26 378.57 5.75 378.66 6.36L379.72 6.36C379.60 5.33 378.83 4.37 376.98 4.37ZM387.53 13.34L388.49 13.34L389.72 10.36L388.35 10.36ZM411.31 4.37C409.26 4.37 407.92 5.98 407.92 7.98C407.92 9.98 409.26 11.59 411.31 11.59C412.47 11.59 413.29 11.12 413.81 10.36L413.81 11.48L414.86 11.48L414.86 1.68L413.81 1.68L413.81 5.61C413.29 4.86 412.47 4.37 411.31 4.37ZM411.45 10.64C409.89 10.64 408.97 9.42 408.97 7.98C408.97 6.54 409.89 5.32 411.45 5.32C413.00 5.32 413.87 6.54 413.87 7.98C413.87 9.42 413.00 10.64 411.45 10.64ZM426.80 10.64C425.39 10.64 424.48 9.65 424.33 8.40L430.19 8.40L430.19 7.98C430.19 5.98 428.86 4.37 426.72 4.37C424.58 4.37 423.25 5.98 423.25 7.98C423.25 9.98 424.65 11.59 426.79 11.59C428.46 11.59 429.49 10.72 429.98 9.46L428.83 9.46C428.46 10.16 427.78 10.64 426.80 10.64ZM426.72 5.32C428.06 5.32 428.90 6.23 429.10 7.42L424.34 7.42C424.54 6.23 425.38 5.32 426.72 5.32ZM439.53 1.68L438.48 1.68L438.48 11.48L439.53 11.48ZM448.35 11.48L449.40 11.48L449.40 4.48L448.35 4.48ZM448.31 1.93L448.31 3.30L449.44 3.30L449.44 1.93ZM462.94 4.48L460.74 10.36L458.53 4.48L457.38 4.48L460.12 11.48L461.36 11.48L464.09 4.48ZM475.10 10.64C473.69 10.64 472.78 9.65 472.63 8.40L478.49 8.40L478.49 7.98C478.49 5.98 477.16 4.37 475.02 4.37C472.88 4.37 471.55 5.98 471.55 7.98C471.55 9.98 472.95 11.59 475.09 11.59C476.76 11.59 477.79 10.72 478.28 9.46L477.13 9.46C476.76 10.16 476.08 10.64 475.10 10.64ZM475.02 5.32C476.36 5.32 477.20 6.23 477.40 7.42L472.64 7.42C472.84 6.23 473.68 5.32 475.02 5.32ZM490.41 4.37C488.67 4.37 487.97 5.73 487.83 6.20L487.83 4.48L486.78 4.48L486.78 11.48L487.83 11.48L487.83 8.40C487.83 6.86 488.78 5.42 490.35 5.42L490.48 5.42L490.48 4.37ZM498.61 11.48L499.66 11.48L499.66 4.48L498.61 4.48ZM498.57 1.93L498.57 3.30L499.70 3.30L499.70 1.93ZM508.48 4.48L508.48 11.48L509.53 11.48L509.53 7.45C509.53 6.19 510.48 5.32 511.64 5.32C512.79 5.32 513.60 6.16 513.60 7.43L513.60 11.48L514.65 11.48L514.65 7.41C514.65 5.42 513.30 4.37 511.85 4.37C510.72 4.37 510.03 4.90 509.53 5.57L509.53 4.48ZM528.86 4.48L528.86 5.60C528.35 4.84 527.52 4.37 526.36 4.37C524.31 4.37 522.97 5.92 522.97 7.92C522.97 9.93 524.31 11.48 526.36 11.48C527.52 11.48 528.35 10.99 528.86 10.23L528.86 11.20C528.86 12.64 528.16 13.41 526.55 13.41C525.49 13.41 524.79 13.01 524.51 12.32L523.35 12.32C523.74 13.54 524.85 14.36 526.61 14.36C528.71 14.36 529.91 13.27 529.91 11.27L529.91 4.48ZM526.50 10.53C524.94 10.53 524.02 9.37 524.02 7.92C524.02 6.48 524.94 5.32 526.50 5.32C528.02 5.32 528.92 6.48 528.92 7.92C528.92 9.37 528.02 10.53 526.50 10.53ZM552.34 4.37C550.61 4.37 549.91 5.73 549.77 6.20L549.77 4.48L548.72 4.48L548.72 11.48L549.77 11.48L549.77 8.40C549.77 6.86 550.72 5.42 552.29 5.42L552.41 5.42L552.41 4.37ZM563.49 10.64C562.07 10.64 561.16 9.65 561.01 8.40L566.87 8.40L566.87 7.98C566.87 5.98 565.54 4.37 563.40 4.37C561.26 4.37 559.93 5.98 559.93 7.98C559.93 9.98 561.33 11.59 563.47 11.59C565.14 11.59 566.17 10.72 566.66 9.46L565.52 9.46C565.14 10.16 564.47 10.64 563.49 10.64ZM563.40 5.32C564.75 5.32 565.59 6.23 565.78 7.42L561.02 7.42C561.22 6.23 562.06 5.32 563.40 5.32ZM577.60 4.37C575.79 4.37 574.85 5.11 574.85 6.37C574.85 8.93 579.52 7.84 579.52 9.59C579.52 10.54 578.30 10.70 577.72 10.70C576.37 10.70 575.83 10.00 575.76 9.28L574.67 9.28C574.74 10.51 575.76 11.59 577.71 11.59C579.45 11.59 580.57 10.85 580.57 9.49C580.57 6.86 575.90 7.95 575.90 6.27C575.90 5.59 576.48 5.26 577.57 5.26C578.75 5.26 579.19 5.75 579.28 6.36L580.34 6.36C580.22 5.33 579.45 4.37 577.60 4.37ZM595.01 11.48L595.01 4.48L593.96 4.48L593.96 8.51C593.96 9.77 593.01 10.64 591.85 10.64C590.70 10.64 589.89 9.80 589.89 8.53L589.89 4.48L588.84 4.48L588.84 8.55C588.84 10.54 590.20 11.59 591.64 11.59C592.77 11.59 593.46 11.06 593.96 10.39L593.96 11.48ZM604.88 1.68L603.83 1.68L603.83 11.48L604.88 11.48ZM615.51 11.48L615.51 5.40L617.12 5.40L617.12 4.48L615.51 4.48L615.51 1.97L614.46 1.97L614.46 4.48L613.03 4.48L613.03 5.40L614.46 5.40L614.46 11.48ZM627.70 4.37C625.90 4.37 624.96 5.11 624.96 6.37C624.96 8.93 629.62 7.84 629.62 9.59C629.62 10.54 628.40 10.70 627.83 10.70C626.47 10.70 625.94 10.00 625.87 9.28L624.78 9.28C624.85 10.51 625.87 11.59 627.82 11.59C629.55 11.59 630.67 10.85 630.67 9.49C630.67 6.86 626.01 7.95 626.01 6.27C626.01 5.59 626.58 5.26 627.68 5.26C628.85 5.26 629.30 5.75 629.38 6.36L630.45 6.36C630.32 5.33 629.55 4.37 627.70 4.37Z"></path></g></svg>